<svg id="Livello_1" data-name="Livello 1" xmlns="http://www.w3.org/2000/svg" viewBox="0 0 50.52 50.52"><g id="Raggruppa_21" data-name="Raggruppa 21"><path id="Tracciato_51" data-name="Tracciato 51" d="M30.1,25.26a4.84,4.84,0,1,1-4.84-4.83h0A4.84,4.84,0,0,1,30.1,25.26Z"/><path id="Tracciato_52" data-name="Tracciato 52" d="M36.57,16.71A4.81,4.81,0,0,0,33.81,14a8,8,0,0,0-2.69-.5c-1.53-.07-2-.08-5.86-.08s-4.33,0-5.86.08a8,8,0,0,0-2.69.5A4.82,4.82,0,0,0,14,16.7a8.07,8.07,0,0,0-.5,2.7c-.07,1.53-.08,2-.08,5.86s0,4.33.08,5.86a8,8,0,0,0,.5,2.69,4.81,4.81,0,0,0,2.76,2.76,8,8,0,0,0,2.69.5c1.53.07,2,.08,5.86.08s4.33,0,5.86-.08a8,8,0,0,0,2.69-.5,4.81,4.81,0,0,0,2.76-2.76,8,8,0,0,0,.5-2.69c.07-1.53.08-2,.08-5.86s0-4.33-.08-5.86A8,8,0,0,0,36.57,16.71Zm-11.31,16a7.45,7.45,0,1,1,7.45-7.45h0a7.45,7.45,0,0,1-7.45,7.45ZM33,19.26a1.75,1.75,0,1,1,1.74-1.75h0A1.73,1.73,0,0,1,33,19.26Z"/><path id="Tracciato_53" data-name="Tracciato 53" d="M25.26,0A25.26,25.26,0,1,0,50.52,25.26h0A25.26,25.26,0,0,0,25.26,0ZM39.68,31.24A10.89,10.89,0,0,1,39,34.76,7.38,7.38,0,0,1,34.76,39a10.62,10.62,0,0,1-3.52.67c-1.55.07-2,.09-6,.09s-4.43,0-6-.09A10.62,10.62,0,0,1,15.76,39a7.38,7.38,0,0,1-4.24-4.24,10.63,10.63,0,0,1-.68-3.52c-.07-1.55-.08-2-.08-6s0-4.44.08-6a10.53,10.53,0,0,1,.68-3.52,7.43,7.43,0,0,1,4.24-4.25,10.62,10.62,0,0,1,3.52-.67c1.55-.07,2-.09,6-.09s4.43,0,6,.09a10.62,10.62,0,0,1,3.52.67A7.43,7.43,0,0,1,39,15.76a10.62,10.62,0,0,1,.67,3.52c.08,1.55.09,2,.09,6S39.75,29.69,39.68,31.24Z"/></g></svg>