<?xml version="1.0" encoding="utf-8"?>
<!-- Generator: Adobe Illustrator 27.8.0, SVG Export Plug-In . SVG Version: 6.00 Build 0)  -->
<svg version="1.1" id="Livello_1" xmlns="http://www.w3.org/2000/svg" xmlns:xlink="http://www.w3.org/1999/xlink" x="0px" y="0px"
	 viewBox="0 0 50.5 50.5" style="enable-background:new 0 0 50.5 50.5;" xml:space="preserve">
<g>
	<path d="M25.3,0C11.3,0,0,11.3,0,25.3s11.3,25.3,25.3,25.3s25.3-11.3,25.3-25.3C50.5,11.3,39.2,0,25.3,0z M30.8,39.3l-7.5-10.9
		l-9.4,10.9h-2.4l10.9-12.4L11.6,11.2h8.2l7.1,10.4l8.9-10.4h2.4L27.9,23.1L39,39.3H30.8z"/>
	<polygon points="25.5,23 18.5,13 14.8,13 23.5,25.4 24.6,27 32,37.6 35.7,37.6 26.6,24.6 	"/>
</g>
</svg>
