<svg id="Livello_1" data-name="Livello 1" xmlns="http://www.w3.org/2000/svg" viewBox="0 0 50.73 50.73"><g id="Raggruppa_22" data-name="Raggruppa 22"><path id="Tracciato_54" data-name="Tracciato 54" d="M22.2,30.12l8.26-4.75L22.2,20.61Z"/><path id="Tracciato_55" data-name="Tracciato 55" d="M25.37,0A25.37,25.37,0,1,0,50.73,25.37h0A25.37,25.37,0,0,0,25.37,0ZM41.21,25.39A41.53,41.53,0,0,1,40.56,33a4,4,0,0,1-2.79,2.79c-2.48.65-12.4.65-12.4.65s-9.9,0-12.4-.68A4,4,0,0,1,10.17,33a41.49,41.49,0,0,1-.65-7.62,42.42,42.42,0,0,1,.65-7.63A4.08,4.08,0,0,1,13,14.92c2.48-.65,12.4-.65,12.4-.65s9.92,0,12.4.68a4,4,0,0,1,2.79,2.79A39.27,39.27,0,0,1,41.21,25.39Z"/></g></svg>