<?xml version="1.0" encoding="UTF-8"?>
<svg id="Layer_1" xmlns="http://www.w3.org/2000/svg" version="1.1" viewBox="0 0 16 16">
  <!-- Generator: Adobe Illustrator 29.0.1, SVG Export Plug-In . SVG Version: 2.1.0 Build 192)  -->
  <defs>
    <style>
      .st0 {
        fill: #fff;
      }
    </style>
  </defs>
  <path class="st0" d="M12.1,6.1c.3.3.3.7,0,.9l-3,2.9c-.5.5-1.2.8-1.9.8s-1.3-.3-1.9-.8l-1.3-1.2c-.3-.3-.3-.7,0-.9.3-.3.7-.3.9,0l1.3,1.2c.5.5,1.3.5,1.9,0l2.9-2.9c.3-.3.7-.3.9,0h0ZM16,8c0,4.4-3.6,8-8,8S0,12.4,0,8,3.6,0,8,0s8,3.6,8,8ZM14.7,8c0-3.7-3-6.7-6.7-6.7S1.3,4.3,1.3,8s3,6.7,6.7,6.7,6.7-3,6.7-6.7Z"/>
</svg>